<?xml version="1.0" encoding="UTF-8"?>
<svg id="a" xmlns="http://www.w3.org/2000/svg" viewBox="0 0 780 530">
  <defs>
    <style>
      .d, .e, .f, .g, .h, .i, .j {
        fill: none;
      }

      .e {
        stroke-width: 6px;
      }

      .e, .f, .g, .h, .i, .j {
        stroke: #ff2dbf;
      }

      .f {
        stroke-width: 8px;
      }

      .g {
        stroke-width: 7px;
      }

      .h {
        stroke-linejoin: round;
        stroke-width: 16px;
      }

      .k {
        fill: aqua;
      }

      .i {
        stroke-miterlimit: 4;
        stroke-width: 7px;
      }

      .j {
        stroke-miterlimit: 4;
        stroke-width: 6px;
      }
    </style>
  </defs>
  <g id="b" data-name="Z">
    <rect class="d" width="780" height="530"/>
    <polygon class="h" points="348 35.5 143.62 153.5 143.62 389.5 348 507.5 552.38 389.5 552.38 153.5 348 35.5"/>
    <path class="h" d="M174.27,135.8l-44.13-50h-65.71"/>
    <circle class="f" cx="49.92" cy="85.8" r="14.52"/>
    <path class="h" d="M143.62,288.3H43.14"/>
    <circle class="i" cx="28.6" cy="288.3" r="14.52" transform="translate(-13.66 1.68) rotate(-2.72)"/>
    <path class="h" d="M552.38,249.7h52l43-40h63.48"/>
    <circle class="g" cx="727.38" cy="209.7" r="14.52"/>
    <path class="h" d="M552.38,295.1h80l42,40h66.48"/>
    <circle class="g" cx="757.38" cy="335.1" r="14.52"/>
    <path class="h" d="M143.62,247.9h42.9"/>
    <circle class="e" cx="198.62" cy="247.9" r="12.1"/>
    <path class="h" d="M552.38,303.3h-37.9"/>
    <circle class="j" cx="502.4" cy="303.32" r="12.1" transform="translate(55.76 683.99) rotate(-71.56)"/>
    <path class="k" d="M196.52,135.8h230l-55,50h-25l-100,100h180v20h-240l55-50h25l100-100h-170v-20h0Z"/>
  </g>
  <g id="c" data-name="L">
    <path class="k" d="M340.59,219.18l17.41,1-2.59,191.45-17.41-1,2.59-191.45h0Z"/>
    <path class="k" d="M372.02,395.53l101.43.49-.37,15.61-125.08-.61,24.02-15.49Z"/>
  </g>
</svg>